<svg width="80" height="80" viewBox="0 0 80 80" fill="none" xmlns="http://www.w3.org/2000/svg">
<circle cx="40" cy="40" r="40" fill="#4C7B62"/>
<path d="M40 53.4375C32.5875 53.4375 26.5625 47.4125 26.5625 40C26.5625 32.5875 32.5875 26.5625 40 26.5625C47.4125 26.5625 53.4375 32.5875 53.4375 40C53.4375 47.4125 47.4125 53.4375 40 53.4375ZM40 28.4375C33.625 28.4375 28.4375 33.625 28.4375 40C28.4375 46.375 33.625 51.5625 40 51.5625C46.375 51.5625 51.5625 46.375 51.5625 40C51.5625 33.625 46.375 28.4375 40 28.4375Z" fill="white"/>
<path d="M38.2258 44.4745C37.9758 44.4745 37.7383 44.3745 37.5633 44.1995L34.0258 40.662C33.6633 40.2995 33.6633 39.6995 34.0258 39.337C34.3883 38.9745 34.9883 38.9745 35.3508 39.337L38.2258 42.212L44.6508 35.787C45.0133 35.4245 45.6133 35.4245 45.9758 35.787C46.3383 36.1495 46.3383 36.7495 45.9758 37.112L38.8883 44.1995C38.7133 44.3745 38.4758 44.4745 38.2258 44.4745Z" fill="white"/>
</svg>
