<svg width="80" height="80" viewBox="0 0 80 80" fill="none" xmlns="http://www.w3.org/2000/svg">
<circle cx="40" cy="40" r="40" fill="#F46F70"/>
<path d="M40.5 53.4375C33.0875 53.4375 27.0625 47.4125 27.0625 40C27.0625 32.5875 33.0875 26.5625 40.5 26.5625C47.9125 26.5625 53.9375 32.5875 53.9375 40C53.9375 47.4125 47.9125 53.4375 40.5 53.4375ZM40.5 28.4375C34.125 28.4375 28.9375 33.625 28.9375 40C28.9375 46.375 34.125 51.5625 40.5 51.5625C46.875 51.5625 52.0625 46.375 52.0625 40C52.0625 33.625 46.875 28.4375 40.5 28.4375Z" fill="white"/>
<path d="M40.5 42.1875C39.9875 42.1875 39.5625 41.7625 39.5625 41.25V35C39.5625 34.4875 39.9875 34.0625 40.5 34.0625C41.0125 34.0625 41.4375 34.4875 41.4375 35V41.25C41.4375 41.7625 41.0125 42.1875 40.5 42.1875Z" fill="white"/>
<path d="M40.5 46.2501C40.3375 46.2501 40.175 46.2126 40.025 46.1501C39.875 46.0876 39.7375 46.0001 39.6125 45.8876C39.5 45.7626 39.4125 45.6376 39.35 45.4751C39.2875 45.3251 39.25 45.1626 39.25 45.0001C39.25 44.8376 39.2875 44.6751 39.35 44.5251C39.4125 44.3751 39.5 44.2376 39.6125 44.1126C39.7375 44.0001 39.875 43.9126 40.025 43.8501C40.325 43.7251 40.675 43.7251 40.975 43.8501C41.125 43.9126 41.2625 44.0001 41.3875 44.1126C41.5 44.2376 41.5875 44.3751 41.65 44.5251C41.7125 44.6751 41.75 44.8376 41.75 45.0001C41.75 45.1626 41.7125 45.3251 41.65 45.4751C41.5875 45.6376 41.5 45.7626 41.3875 45.8876C41.2625 46.0001 41.125 46.0876 40.975 46.1501C40.825 46.2126 40.6625 46.2501 40.5 46.2501Z" fill="white"/>
</svg>
